<svg width="55" height="55" viewBox="0 0 55 55" fill="none" xmlns="http://www.w3.org/2000/svg">
<path d="M25.5541 15.0183C25.6352 15.0175 25.7164 15.0166 25.8 15.0157C26.0667 15.013 26.3333 15.0112 26.6 15.0097C26.738 15.0088 26.738 15.0088 26.8787 15.008C27.3662 15.0051 27.8536 15.003 28.3411 15.0015C28.741 15 29.1409 14.997 29.5409 14.9926C30.0272 14.9873 30.5135 14.9847 30.9999 14.9839C31.1835 14.9832 31.367 14.9816 31.5506 14.979C32.8145 14.9621 33.8314 15.1336 35.0196 15.5762C35.2709 15.6634 35.5222 15.7505 35.7737 15.8372C36.1479 15.9711 36.5215 16.1064 36.8951 16.2419C37.0248 16.2889 37.1545 16.3359 37.2881 16.3844C37.4139 16.43 37.5397 16.4757 37.6694 16.5227C37.987 16.636 38.3055 16.744 38.6258 16.8493C39.7496 17.2248 40.5775 17.6955 41.4649 18.4766C41.579 18.5735 41.6932 18.6701 41.8077 18.7665C41.8652 18.815 41.9226 18.8634 41.9818 18.9134C42.0977 19.0112 42.2137 19.1089 42.3296 19.2067C42.4159 19.2796 42.4159 19.2796 42.5039 19.354C42.5912 19.4278 42.5912 19.4278 42.6803 19.5031C42.8051 19.61 42.9288 19.7181 43.0517 19.8271C43.2435 19.9973 43.4382 20.1636 43.6335 20.3296C43.6908 20.3823 43.7481 20.4349 43.8072 20.4892C44.1636 20.7857 44.4043 20.8734 44.8701 20.8352C45.0606 20.8053 45.2505 20.7707 45.4395 20.7324C45.5397 20.7122 45.6399 20.692 45.7431 20.6712C46.1665 20.5805 46.5876 20.4811 47.0089 20.381C48.1684 20.1159 49.1144 20.1314 50.1862 20.6989C50.831 21.229 51.4123 21.8205 51.5626 22.666C51.6707 23.8853 51.5529 24.7378 50.7972 25.7007C49.8946 26.6354 48.5904 26.8715 47.3748 27.186C47.0723 27.2647 46.7707 27.3464 46.4691 27.4285C44.9675 27.8274 43.5137 28.138 42.0708 27.364C41.7538 27.1691 41.4478 26.9608 41.1427 26.748C41.0584 26.6898 40.9742 26.6315 40.8875 26.5714C39.133 25.3561 39.133 25.3561 38.7768 25.0688C38.5592 24.9182 38.3933 24.8606 38.1348 24.8145C38.1205 24.8707 38.1062 24.9269 38.0915 24.9848C37.9222 25.598 37.7006 26.1779 37.4521 26.7623C37.4191 26.8404 37.386 26.9184 37.3519 26.9988C37.2135 27.3246 37.0744 27.6501 36.9335 27.9747C36.8297 28.2146 36.7279 28.4551 36.6263 28.6959C36.5944 28.768 36.5626 28.8401 36.5297 28.9143C36.3134 29.4322 36.2663 29.8388 36.3087 30.4004C36.4579 30.7031 36.4579 30.7031 36.6309 30.9375C36.6309 31.0084 36.6309 31.0793 36.6309 31.1523C36.7042 31.1777 36.7774 31.203 36.8529 31.2291C37.2368 31.3973 37.5694 31.621 37.9133 31.8573C38.0563 31.9544 38.1994 32.0513 38.3426 32.1481C38.415 32.1971 38.4874 32.246 38.562 32.2965C38.8356 32.4789 39.1131 32.6544 39.3914 32.8295C40.6694 33.6358 41.592 34.426 41.9466 35.9688C42.0056 36.3305 42.0151 36.6663 42.0121 37.0327C42.0116 37.1022 42.0111 37.1718 42.0106 37.2434C42.0086 37.4689 42.0055 37.6944 42.002 37.9199C42.0009 37.9948 41.9997 38.0696 41.9985 38.1467C41.989 38.7142 41.9762 39.2815 41.9626 39.8489C41.9594 39.9816 41.9594 39.9816 41.9562 40.1169C41.9451 40.5834 41.9337 41.0499 41.922 41.5164C41.9126 41.8992 41.9036 42.2821 41.8952 42.6649C41.8849 43.1321 41.8736 43.5992 41.8618 44.0663C41.8574 44.2426 41.8534 44.4189 41.8497 44.5952C41.7888 47.4619 41.7888 47.4619 40.736 48.5354C39.9843 49.1498 39.0509 49.4958 38.0782 49.4481C36.9983 49.3099 36.2045 48.8832 35.5231 48.031C35.0353 47.3852 34.8636 46.682 34.8709 45.8866C34.8703 45.8074 34.8697 45.7282 34.8691 45.6465C34.8681 45.4762 34.8677 45.3059 34.8681 45.1356C34.8686 44.866 34.867 44.5965 34.865 44.3269C34.8604 43.6583 34.8592 42.9897 34.8579 42.321C34.8567 41.7541 34.8541 41.1873 34.8499 40.6204C34.8484 40.3548 34.8489 40.0893 34.8494 39.8237C34.8484 39.6614 34.8473 39.4991 34.8461 39.3368C34.8459 39.1951 34.8457 39.0534 34.8454 38.9074C34.8339 38.5697 34.8339 38.5697 34.6579 38.364C34.4126 38.1937 34.1595 38.0758 33.8866 37.9543C33.7642 37.8995 33.6417 37.8447 33.5155 37.7882C33.3813 37.7291 33.2471 37.6701 33.1129 37.6111C32.9741 37.5495 32.8353 37.4879 32.6966 37.4262C31.4065 36.8552 30.1058 36.3096 28.803 35.7685C28.5477 35.6621 28.2924 35.5557 28.0372 35.4492C27.9694 35.4212 27.9017 35.3931 27.8319 35.3642C27.628 35.2797 27.4245 35.1944 27.221 35.1089C27.1018 35.0592 26.9826 35.0094 26.8597 34.9582C25.7112 34.4181 25.0201 33.5414 24.5741 32.3764C24.1171 30.9398 24.6061 29.6087 25.1511 28.2666C25.1936 28.1599 25.2362 28.0531 25.28 27.9431C25.415 27.6049 25.5511 27.2671 25.6873 26.9293C25.7761 26.7077 25.8648 26.4861 25.9534 26.2644C26.0855 25.9338 26.2178 25.6032 26.3503 25.2727C26.8124 24.1202 27.2643 22.9637 27.7149 21.8066C27.0768 21.7712 26.4388 21.7357 25.7813 21.6992C25.7104 21.841 25.6395 21.9828 25.5665 22.1289C25.4553 22.2893 25.3406 22.4472 25.2232 22.6031C25.1556 22.6932 25.088 22.7833 25.0183 22.8762C24.9466 22.9708 24.8749 23.0654 24.8011 23.1628C24.728 23.2596 24.6549 23.3563 24.5795 23.456C24.3719 23.7301 24.1636 24.0038 23.9552 24.2773C23.907 24.3411 23.8589 24.4048 23.8093 24.4705C23.1226 25.3785 22.4392 26.2138 21.2696 26.4258C20.3317 26.5358 19.5587 26.3651 18.7746 25.8341C18.1408 25.3238 17.6645 24.6579 17.5098 23.8477C17.3492 22.2224 18.0875 21.2216 19.0425 20.0058C19.3683 19.5853 19.6801 19.1545 19.994 18.725C20.182 18.47 20.3702 18.2153 20.5586 17.9605C20.6693 17.8103 20.7797 17.6597 20.8896 17.5088C21.79 16.2729 22.7253 15.3578 24.2985 15.0875C24.7186 15.0377 25.1318 15.0209 25.5541 15.0183Z" fill="#475259"/>
<path d="M23.7402 34.375C23.8214 34.4563 23.9025 34.5376 23.9861 34.6213C24.0822 34.7173 24.1783 34.8132 24.2773 34.9121C24.338 34.9737 24.3986 35.0354 24.4611 35.0988C24.8851 35.4999 25.3419 35.7967 25.8564 36.0682C25.9262 36.1052 25.996 36.1422 26.068 36.1803C26.8979 36.6121 27.7576 36.971 28.6212 37.3291C28.7847 37.3976 28.9481 37.4661 29.1115 37.5347C29.505 37.6997 29.8989 37.8638 30.293 38.0273C30.124 38.4745 29.9207 38.7934 29.6216 39.1687C29.0763 39.8605 28.5544 40.568 28.037 41.2809C27.2522 42.3549 26.4978 43.2878 25.1367 43.6133C24.5801 43.6931 24.0437 43.7349 23.4804 43.738C23.3686 43.7388 23.3686 43.7388 23.2545 43.7396C23.0108 43.7412 22.7671 43.7419 22.5233 43.7425C22.4392 43.7428 22.3551 43.7431 22.2684 43.7434C21.8233 43.745 21.3781 43.746 20.9329 43.7465C20.4767 43.7471 20.0205 43.7497 19.5642 43.7527C19.2101 43.7548 18.856 43.7553 18.5019 43.7555C18.3339 43.7558 18.1659 43.7566 17.9978 43.7581C16.4714 43.7701 15.1713 43.639 13.9921 42.5865C13.3169 41.8843 13.0829 41.0173 13.0518 40.0616C13.086 39.0167 13.4506 38.1379 14.1797 37.3828C15.2534 36.474 16.3938 36.3681 17.759 36.3845C17.9044 36.3851 18.0498 36.3856 18.1952 36.3859C18.5741 36.3871 18.9531 36.3903 19.3321 36.3939C19.7202 36.3972 20.1084 36.3987 20.4966 36.4003C21.2556 36.4037 22.0145 36.4092 22.7734 36.416C22.8209 36.2679 22.8209 36.2679 22.8693 36.1168C23.0028 35.7294 23.1801 35.3916 23.3777 35.033C23.4795 34.8473 23.4795 34.8473 23.5833 34.6578C23.6351 34.5645 23.6869 34.4712 23.7402 34.375Z" fill="#475259"/>
<path d="M42.6631 6.60561C43.7215 7.45639 44.3118 8.69213 44.5296 10.0146C44.6986 11.6239 44.2794 13.0692 43.264 14.3341C42.2342 15.41 40.8235 15.9871 39.3565 16.0327C37.9139 16.0149 36.5986 15.493 35.5397 14.5057C34.5207 13.381 34.0381 12.0338 34.0526 10.5273C34.1525 9.12506 34.6725 7.87853 35.6639 6.875C37.6386 5.16598 40.5471 5.14131 42.6631 6.60561Z" fill="#475259"/>
<path d="M4.73741 27.2313C4.82479 27.2307 4.91218 27.2301 5.00221 27.2295C5.2908 27.2282 5.57927 27.2299 5.86786 27.2319C6.06852 27.2318 6.26919 27.2317 6.46985 27.2314C6.89031 27.2312 7.31072 27.2326 7.73117 27.235C8.27013 27.2381 8.80903 27.2378 9.34801 27.2364C9.76234 27.2357 10.1767 27.2365 10.591 27.2378C10.7897 27.2383 10.9884 27.2384 11.1872 27.238C11.4649 27.2376 11.7426 27.2394 12.0203 27.2418C12.1435 27.241 12.1435 27.241 12.2692 27.2403C12.6076 27.245 12.8528 27.2649 13.1535 27.4263C13.4212 27.717 13.421 27.9733 13.4277 28.3594C13.2831 28.676 13.2036 28.8474 12.8906 29.0039C12.6077 29.0161 12.3276 29.0219 12.0447 29.0229C11.9573 29.0236 11.87 29.0243 11.78 29.0251C11.4902 29.0272 11.2005 29.0284 10.9108 29.0295C10.812 29.0299 10.7132 29.0304 10.6114 29.0308C10.0885 29.0331 9.56561 29.0346 9.04273 29.0356C8.50207 29.0368 7.96146 29.0405 7.42082 29.0448C7.00557 29.0476 6.59033 29.0485 6.17508 29.0489C5.97575 29.0494 5.77642 29.0506 5.57709 29.0526C5.2983 29.0552 5.01963 29.0551 4.74082 29.0544C4.65833 29.0558 4.57583 29.0571 4.49084 29.0586C4.11125 29.0548 3.90636 29.0341 3.60124 28.7993C3.42377 28.5554 3.37907 28.4426 3.38373 28.1445C3.38207 28.0382 3.38207 28.0382 3.38037 27.9297C3.56411 27.238 4.12315 27.2235 4.73741 27.2313Z" fill="#5AB4C5"/>
<path d="M8.31568 22.7544C8.38507 22.7537 8.45445 22.753 8.52594 22.7523C8.75527 22.7502 8.98459 22.7489 9.21393 22.7478C9.29236 22.7474 9.3708 22.747 9.45162 22.7465C9.86666 22.7443 10.2817 22.7427 10.6967 22.7417C11.125 22.7405 11.5533 22.7368 11.9816 22.7326C12.3113 22.7298 12.641 22.7289 12.9708 22.7285C13.1286 22.728 13.2865 22.7267 13.4444 22.7247C13.6655 22.7221 13.8865 22.7222 14.1077 22.7229C14.2333 22.7223 14.359 22.7217 14.4885 22.721C14.8972 22.7848 15.0737 22.9102 15.3613 23.2031C15.4866 23.6337 15.5152 23.8533 15.3277 24.2639C15.1465 24.4922 15.1465 24.4922 14.9316 24.5996C14.6998 24.6122 14.4675 24.6178 14.2353 24.6203C14.1639 24.6212 14.0924 24.6221 14.0188 24.623C13.7819 24.6257 13.545 24.6274 13.3081 24.629C13.2272 24.6296 13.1463 24.6301 13.063 24.6307C12.6347 24.6336 12.2064 24.6357 11.7781 24.6372C11.336 24.639 10.8939 24.6438 10.4518 24.6493C10.1116 24.6529 9.77147 24.6541 9.43131 24.6547C9.26834 24.6555 9.10538 24.6571 8.94243 24.6597C8.71404 24.6631 8.48589 24.6631 8.25749 24.6623C8.06274 24.6636 8.06274 24.6636 7.86405 24.6649C7.41812 24.5804 7.25877 24.4157 6.9824 24.0625C6.92502 23.6537 6.92271 23.4186 7.1234 23.0554C7.47375 22.718 7.85411 22.7583 8.31568 22.7544Z" fill="#5AB4C5"/>
<path d="M13.1395 18.3016C13.2834 18.3012 13.2834 18.3012 13.4303 18.3008C13.6326 18.3009 13.835 18.3023 14.0373 18.305C14.3469 18.3087 14.6562 18.3072 14.9658 18.3051C15.1627 18.3059 15.3596 18.3069 15.5565 18.3083C15.6489 18.3078 15.7413 18.3072 15.8366 18.3067C16.4741 18.3192 16.4741 18.3192 16.8128 18.5647C17.042 18.9003 17.0801 19.1461 17.0801 19.5508C16.8903 19.8518 16.7545 20.0358 16.4355 20.1953C16.1272 20.2073 15.8216 20.2129 15.5132 20.2134C15.4216 20.2137 15.3299 20.2141 15.2355 20.2144C15.0413 20.215 14.8472 20.2152 14.653 20.2152C14.3562 20.2154 14.0594 20.2174 13.7626 20.2194C13.574 20.2198 13.3855 20.22 13.1969 20.2201C13.1082 20.2208 13.0195 20.2216 12.928 20.2224C12.1364 20.2193 12.1364 20.2193 11.8164 19.9805C11.5478 19.5776 11.544 19.3834 11.6016 18.9062C12.0426 18.2969 12.4418 18.2908 13.1395 18.3016Z" fill="#5AB4C5"/>
</svg>
